# xmcd
#
# Track frame offsets:
#	150
#	20610
#	41754
#	58577
#	77116
#	95652
#
# Disc length: 1589 seconds
#
# Revision: 1
# Processed by: cddbd v1.5.1PL0 Copyright (c) Steve Scherf et al.
# Submitted via: audiograbber 1.83.01
#
DISCID=49063306
DTITLE=Firecracker - Certain Things Last
DYEAR=2002
DGENRE=Country Pop
TTITLE0=Box Of Hearts
TTITLE1=When You Were Around
TTITLE2=Church Key
TTITLE3=Losertown
TTITLE4=Cast Aside
TTITLE5=Gather At The River
EXTD=
EXTT0=
EXTT1=
EXTT2=
EXTT3=
EXTT4=
EXTT5=
PLAYORDER=
